<svg xmlns="http://www.w3.org/2000/svg" xmlns:xlink="http://www.w3.org/1999/xlink" width="141.311" height="55.698" viewBox="0 0 141.311 55.698"><defs><clipPath id="clip-path"><rect id="Rect&#xE1;ngulo_1628" data-name="Rect&#xE1;ngulo 1628" width="141.311" height="55.698" fill="none"></rect></clipPath><clipPath id="clip-path-2"><path id="Trazado_5170" data-name="Trazado 5170" d="M2.558,218.609A4.915,4.915,0,0,0,0,222.914v.027a4.92,4.92,0,1,0,2.558-4.331" transform="translate(0 -218.005)" fill="none"></path></clipPath></defs><g id="Grupo_9125" data-name="Grupo 9125" transform="translate(310.35 287.727)"><g id="Grupo_4540" data-name="Grupo 4540" transform="translate(-310.35 -287.727)"><g id="Grupo_4121" data-name="Grupo 4121"><g id="Grupo_4120" data-name="Grupo 4120" clip-path="url(#clip-path)"><path id="Trazado_5166" data-name="Trazado 5166" d="M52.364,16.233a10.97,10.97,0,1,1,14.889,4.361,10.983,10.983,0,0,1-14.889-4.361m3.957-2.164A6.46,6.46,0,1,0,58.889,5.3a6.468,6.468,0,0,0-2.568,8.768" transform="translate(-46.103 0)" fill="#00e9ef"></path><path id="Trazado_5167" data-name="Trazado 5167" d="M2.558,218.608a4.916,4.916,0,1,0,6.672,1.954,4.916,4.916,0,0,0-6.672-1.954" transform="translate(0 -196.994)" fill="#3c44ee"></path></g></g><g id="Grupo_4123" data-name="Grupo 4123" transform="translate(0 21.011)"><g id="Grupo_4122" data-name="Grupo 4122" clip-path="url(#clip-path-2)"><path id="Trazado_5168" data-name="Trazado 5168" d="M1.825,203.239l4.764-2.606L2.9,199.554Z" transform="translate(-1.649 -201.332)" fill="#3c44ee"></path><path id="Trazado_5169" data-name="Trazado 5169" d="M55.546,300.26l-4.764,2.606,3.685,1.079Z" transform="translate(-45.887 -292.332)" fill="#3c44ee"></path></g></g><g id="Grupo_4125" data-name="Grupo 4125"><g id="Grupo_4124" data-name="Grupo 4124" clip-path="url(#clip-path)"><path id="Trazado_5171" data-name="Trazado 5171" d="M134.8,328.8v3.916h-13.57V313.41h13.325v3.916h-8.865v3.753H133.3V324.7h-7.614V328.8Z" transform="translate(-109.545 -283.204)" fill="#3c44ee"></path><path id="Trazado_5172" data-name="Trazado 5172" d="M278.6,313.41l4.541,14.087,4.487-14.087h4.7l-7.016,19.308h-4.378l-7.07-19.308Z" transform="translate(-247.477 -283.204)" fill="#3c44ee"></path><path id="Trazado_5173" data-name="Trazado 5173" d="M492.785,376.1a8.558,8.558,0,0,1-3.315-.6A7.334,7.334,0,0,1,487,373.844a7.11,7.11,0,0,1-1.546-2.387,7.722,7.722,0,0,1-.53-2.855,7.523,7.523,0,0,1,.933-3.678,7.169,7.169,0,0,1,2.688-2.744,8.141,8.141,0,0,1,4.234-1.044,7.949,7.949,0,0,1,4.248,1.073,6.855,6.855,0,0,1,2.6,2.8l-4.346,1.309a2.925,2.925,0,0,0-1.072-1.031,2.976,2.976,0,0,0-1.462-.362,3.066,3.066,0,0,0-1.658.46,3.275,3.275,0,0,0-1.17,1.271,4.54,4.54,0,0,0,.014,3.894,3.481,3.481,0,0,0,1.17,1.312,3.1,3.1,0,0,0,2.688.292,3.058,3.058,0,0,0,.891-.515,2.512,2.512,0,0,0,.627-.752l4.346,1.337a6.228,6.228,0,0,1-1.518,1.992,7.361,7.361,0,0,1-2.326,1.379,8.61,8.61,0,0,1-3.036.5" transform="translate(-438.193 -326.33)" fill="#00e9ef"></path><path id="Trazado_5174" data-name="Trazado 5174" d="M672.735,322.795h-4.457v-8.051a3.066,3.066,0,0,0-.571-2.047,1.915,1.915,0,0,0-1.518-.655,2.6,2.6,0,0,0-1.128.308,4.035,4.035,0,0,0-1.156.871,3.842,3.842,0,0,0-.808,1.314v8.26h-4.457V302.459H663.1V310.8a5.529,5.529,0,0,1,2.131-1.989,6.131,6.131,0,0,1,2.911-.7,5.032,5.032,0,0,1,2.41.494,3.489,3.489,0,0,1,1.379,1.3,5.266,5.266,0,0,1,.641,1.77,11.036,11.036,0,0,1,.167,1.894Z" transform="translate(-595.161 -273.309)" fill="#00e9ef"></path><path id="Trazado_5175" data-name="Trazado 5175" d="M828.015,371.511a4.028,4.028,0,0,1,.808-2.5,5.43,5.43,0,0,1,2.228-1.689,8.1,8.1,0,0,1,3.259-.618,10.072,10.072,0,0,1,1.755.154,6.736,6.736,0,0,1,1.5.432v-.639a2.21,2.21,0,0,0-.724-1.777,3.319,3.319,0,0,0-2.2-.62,6.273,6.273,0,0,0-2.3.418,12.588,12.588,0,0,0-2.27,1.2l-1.337-2.841a11.652,11.652,0,0,1,3.023-1.42,11.5,11.5,0,0,1,3.329-.474,7.689,7.689,0,0,1,5.112,1.542,5.521,5.521,0,0,1,1.825,4.464v3.741a1.493,1.493,0,0,0,.209.915,1.043,1.043,0,0,0,.738.314v3.7q-.558.111-1.045.167a7.67,7.67,0,0,1-.849.056,3.1,3.1,0,0,1-1.908-.5,2.173,2.173,0,0,1-.822-1.365l-.084-.641a6.53,6.53,0,0,1-2.326,1.908,6.406,6.406,0,0,1-2.828.655,5.543,5.543,0,0,1-2.6-.6,4.708,4.708,0,0,1-1.825-1.647,4.233,4.233,0,0,1-.669-2.333m8.859.521a2.3,2.3,0,0,0,.5-.536,1.033,1.033,0,0,0,.2-.564V369.67a6.731,6.731,0,0,0-1.24-.335,7.319,7.319,0,0,0-1.267-.121,3.668,3.668,0,0,0-2.034.524,1.583,1.583,0,0,0-.808,1.382,1.524,1.524,0,0,0,.278.886,1.967,1.967,0,0,0,.766.644,2.573,2.573,0,0,0,1.156.242,3.907,3.907,0,0,0,1.337-.242,3.61,3.61,0,0,0,1.114-.617" transform="translate(-748.213 -326.33)" fill="#00e9ef"></path><path id="Trazado_5176" data-name="Trazado 5176" d="M1019.678,363.442a7.915,7.915,0,0,0-2.925.516,3.627,3.627,0,0,0-1.895,1.518v8.775H1010.4V359.793h4.095v2.786a6.154,6.154,0,0,1,1.95-2.312,4.492,4.492,0,0,1,2.507-.863h.46a1.124,1.124,0,0,1,.265.028Z" transform="translate(-913.021 -324.764)" fill="#00e9ef"></path><path id="Trazado_5177" data-name="Trazado 5177" d="M1123.833,376.095a6.067,6.067,0,0,1-2.646-.571,5.993,5.993,0,0,1-2.048-1.588,7.568,7.568,0,0,1-1.323-2.354,9.016,9.016,0,0,1,.028-5.85,7.685,7.685,0,0,1,1.407-2.41,6.291,6.291,0,0,1,2.145-1.616,6.485,6.485,0,0,1,2.744-.571,5.966,5.966,0,0,1,2.9.682,5.213,5.213,0,0,1,2.006,1.937v-2.4h3.872v13.513a6.7,6.7,0,0,1-1.072,3.813,6.975,6.975,0,0,1-2.981,2.474,10.539,10.539,0,0,1-4.416.871,9.675,9.675,0,0,1-4.025-.766,8.845,8.845,0,0,1-2.939-2.159l2.4-2.424a5.834,5.834,0,0,0,2.006,1.463,6.133,6.133,0,0,0,2.563.543,5.464,5.464,0,0,0,2.006-.359,3.084,3.084,0,0,0,1.462-1.154,3.726,3.726,0,0,0,.543-2.136v-1.421a4.468,4.468,0,0,1-1.936,1.839,5.883,5.883,0,0,1-2.688.641m1.532-3.538a3.124,3.124,0,0,0,.989-.153,3.448,3.448,0,0,0,.849-.418,3.9,3.9,0,0,0,.724-.641,3.1,3.1,0,0,0,.53-.822V367.46a3.937,3.937,0,0,0-1.978-2.229,3.067,3.067,0,0,0-1.337-.306,2.889,2.889,0,0,0-1.309.306,2.953,2.953,0,0,0-1.044.878,4.5,4.5,0,0,0-.906,2.716,3.976,3.976,0,0,0,.265,1.476,3.781,3.781,0,0,0,.738,1.184,3.25,3.25,0,0,0,1.114.794,3.382,3.382,0,0,0,1.365.279" transform="translate(-1009.655 -326.33)" fill="#00e9ef"></path><path id="Trazado_5178" data-name="Trazado 5178" d="M1311.628,376.1a8.705,8.705,0,0,1-3.315-.592,7.367,7.367,0,0,1-2.465-1.612,6.887,6.887,0,0,1-1.546-2.355,7.516,7.516,0,0,1-.529-2.8,7.774,7.774,0,0,1,.933-3.789,7.226,7.226,0,0,1,2.688-2.763,9.052,9.052,0,0,1,8.455-.011,7.126,7.126,0,0,1,2.661,2.728,7.534,7.534,0,0,1,.919,3.662,6.734,6.734,0,0,1-.042.755q-.042.37-.07.644h-10.808a3.2,3.2,0,0,0,.543,1.6,2.954,2.954,0,0,0,1.184.988,3.568,3.568,0,0,0,1.532.339,3.9,3.9,0,0,0,1.88-.473,2.564,2.564,0,0,0,1.212-1.281l3.789,1.058a6.308,6.308,0,0,1-1.574,2.02,7.609,7.609,0,0,1-2.4,1.379,8.872,8.872,0,0,1-3.051.5m-3.231-8.858h6.352a3.64,3.64,0,0,0-.53-1.529,2.859,2.859,0,0,0-1.114-1.01,3.481,3.481,0,0,0-3.078,0,2.882,2.882,0,0,0-1.1,1.01,3.642,3.642,0,0,0-.529,1.529" transform="translate(-1178.117 -326.33)" fill="#00e9ef"></path></g></g></g></g></svg>